<svg width="40" height="40" viewBox="0 0 55 47" fill="none" xmlns="http://www.w3.org/2000/svg">
<rect width="54.6017" height="46.6017" rx="23.3009" fill="url(#paint0_linear_6_146)"/>
<path d="M9.19776 16.3753H15.4533C17.0869 16.3753 18.3619 16.787 19.2783 17.6105C20.208 18.4339 20.6729 19.616 20.6729 21.1566C20.6729 22.1926 20.4471 23.0758 19.9955 23.8062C19.544 24.5367 18.9065 25.0813 18.083 25.4399L20.5533 30.3008H16.9275L14.7162 25.9379H12.724V30.3008H9.19776V16.3753ZM14.8357 22.9695C15.5396 22.9695 16.0842 22.8367 16.4693 22.5711C16.8545 22.2922 17.0471 21.8207 17.0471 21.1566C17.0471 20.466 16.8545 19.9945 16.4693 19.7421C16.0974 19.4765 15.5529 19.3437 14.8357 19.3437H12.724V22.9695H14.8357ZM34.9268 30.1415V30.3008H30.3049C30.2518 29.5438 30.1389 28.7602 29.9662 27.95C29.1428 28.7868 28.2131 29.5704 27.1771 30.3008H22.5353C22.4423 29.7563 22.3958 29.0391 22.3958 28.1493C22.3958 27.2461 22.5286 26.343 22.7943 25.4399C23.7505 25.1609 24.6669 24.6895 25.5435 24.0254C26.4334 23.3613 27.0775 22.6441 27.476 21.8738C27.1174 21.316 26.7388 20.8047 26.3404 20.3398H32.9545C34.2694 23.1953 34.9268 26.4625 34.9268 30.1415ZM29.6076 26.4957C29.2623 25.3137 28.8107 24.198 28.2529 23.1488C27.6287 24.9816 27.2701 26.7149 27.1771 28.3485C28.1334 27.8571 28.9436 27.2395 29.6076 26.4957ZM39.1301 31.1973C39.223 30.1614 39.2695 28.7336 39.2695 26.9141C39.2695 25.0813 39.1168 22.8898 38.8113 20.3398H44.1903C44.2168 20.8445 44.2301 21.6215 44.2301 22.6707C44.2301 25.4863 44.0442 28.0297 43.6723 30.3008C43.1543 30.7923 42.6762 31.1509 42.2379 31.3766C41.7996 31.6157 41.5008 31.7751 41.3414 31.8548C41.182 31.9477 40.8965 32.0805 40.4848 32.2532C40.073 32.4391 39.8273 32.552 39.7476 32.5919C38.0476 32.4591 36.6 32.1602 35.4046 31.6954C35.4312 30.8188 35.471 30.0087 35.5242 29.2649C36.7593 30.1547 37.9613 30.7989 39.1301 31.1973Z" fill="white"/>
<defs>
<linearGradient id="paint0_linear_6_146" x1="3.48698e-07" y1="8.73782" x2="54.7358" y2="36.7699" gradientUnits="userSpaceOnUse">
<stop stop-color="#0066FF"/>
<stop offset="1" stop-color="#001AFF"/>
</linearGradient>
</defs>
</svg>
